<?xml version="1.0" standalone="no"?>
<!DOCTYPE svg PUBLIC "-//W3C//DTD SVG 20010904//EN"
 "http://www.w3.org/TR/2001/REC-SVG-20010904/DTD/svg10.dtd">
<svg version="1.0" xmlns="http://www.w3.org/2000/svg"
 width="349.000000pt" height="349.000000pt" viewBox="0 0 349.000000 349.000000"
 preserveAspectRatio="xMidYMid meet">
<metadata>
Created by potrace 1.11, written by Peter Selinger 2001-2013
</metadata>
<g transform="translate(0.000000,349.000000) scale(0.100000,-0.100000)"
fill="#000000" stroke="none">
<path d="M0 2408 l0 -1082 41 39 c70 68 101 114 111 163 36 190 48 280 48 375
0 59 -4 107 -9 107 -4 0 -21 -10 -36 -21 -25 -21 -27 -21 -25 -3 4 36 0 36
-45 0 -25 -21 -45 -36 -45 -34 0 3 9 23 20 46 23 48 25 56 7 46 -7 -5 -6 0 3
13 8 12 35 51 60 87 46 66 67 78 90 51 9 -11 16 -13 24 -5 13 13 29 13 21 0
-3 -5 0 -7 8 -4 8 3 19 -1 25 -8 12 -15 33 -331 26 -388 -3 -19 -7 -54 -10
-78 -4 -32 -9 -42 -20 -38 -11 4 -14 -5 -14 -39 l0 -45 37 15 c20 9 60 30 87
49 28 18 92 59 142 92 l91 58 31 226 c18 124 32 237 32 253 0 30 7 32 47 15
46 -21 52 -37 53 -128 0 -47 5 -105 11 -129 7 -30 7 -47 -1 -55 -16 -16 -12
-56 5 -56 19 0 19 -7 0 -26 -8 -9 -16 -30 -16 -47 -1 -24 -3 -26 -6 -9 -10 51
-48 5 -78 -92 -35 -119 -67 -478 -43 -492 5 -3 4 -12 -3 -20 -6 -7 -15 -11
-20 -8 -5 3 -8 0 -7 -7 2 -7 -20 -26 -48 -41 l-51 -28 -15 61 -15 60 38 54
c48 69 100 246 81 276 -7 10 -12 38 -12 61 0 75 -10 77 -87 22 -37 -27 -105
-77 -151 -111 -46 -34 -89 -66 -96 -70 -7 -5 -24 -28 -37 -53 -23 -44 -25 -50
-28 -69 0 -5 -17 -28 -36 -51 -19 -22 -37 -56 -41 -74 -7 -40 -54 -89 -106
-111 l-38 -15 0 -570 0 -570 1745 0 1745 0 -1 873 c-1 479 -4 863 -8 852 -3
-11 -15 -36 -25 -55 -10 -19 -36 -82 -57 -140 -21 -58 -47 -123 -58 -145 -12
-21 -21 -46 -21 -53 0 -9 -6 -12 -16 -8 -8 3 -13 2 -10 -2 3 -5 -1 -30 -9 -57
-19 -62 -19 -70 2 -54 10 8 2 -6 -17 -30 -19 -24 -51 -76 -72 -115 -44 -83
-44 -80 -23 109 12 115 27 183 66 305 7 19 14 42 16 50 3 8 -5 4 -16 -10 l-21
-25 7 35 c3 19 14 54 25 78 10 24 18 47 18 52 0 5 5 21 12 37 6 15 12 33 13
38 11 83 18 105 30 95 26 -22 165 59 165 96 0 18 -5 21 -32 17 -52 -6 -79 -6
-143 2 -86 11 -97 20 -51 39 21 9 42 16 47 16 4 0 11 9 14 20 3 11 13 20 21
20 8 0 14 5 14 10 0 6 28 10 65 10 l65 0 0 715 0 715 -1745 0 -1745 0 0 -1082z
m2897 -226 c-30 -33 -18 -35 18 -3 43 37 53 39 31 6 -25 -38 -19 -42 15 -9 30
28 30 29 21 4 -6 -14 -25 -63 -43 -110 -33 -87 -49 -116 -49 -90 0 28 -19 -12
-46 -100 -14 -47 -49 -157 -76 -245 -28 -88 -55 -178 -61 -200 -10 -41 -34
-78 -47 -70 -3 2 -4 -10 -2 -26 5 -36 -4 -44 122 101 46 52 120 135 164 183
45 49 85 95 89 103 4 8 35 32 69 55 55 38 61 40 76 25 15 -15 15 -16 -1 -16
-21 0 -22 -8 0 -32 9 -10 12 -18 7 -18 -5 0 -10 -44 -12 -98 -1 -56 -10 -124
-21 -162 -11 -36 -22 -77 -25 -91 -8 -35 -281 -285 -314 -286 -12 -1 -50 14
-83 33 -34 19 -65 34 -71 34 -5 0 -29 -21 -52 -47 -39 -42 -43 -45 -48 -26 -4
14 3 32 22 55 22 26 27 40 23 69 -3 20 2 62 12 94 9 32 14 68 11 80 -3 12 8
69 24 126 34 119 35 126 16 110 -10 -8 -7 12 10 71 14 46 34 117 46 158 59
212 76 262 88 255 4 -2 27 17 51 43 24 27 46 47 48 45 2 -2 -3 -11 -12 -21z
m-1233 -298 c23 -9 20 -41 -20 -209 -19 -82 -37 -160 -40 -173 -2 -13 -8 -21
-12 -18 -4 2 -8 -10 -9 -27 l-2 -32 47 50 c26 28 76 83 112 124 36 41 75 83
86 95 12 12 34 40 48 64 14 23 32 42 40 42 7 0 19 7 26 15 7 8 16 12 21 9 5
-3 34 6 65 20 31 14 58 26 60 26 27 0 -79 -440 -139 -580 -8 -19 -23 -68 -32
-107 -18 -74 -35 -96 -35 -45 0 15 9 63 20 106 26 102 18 111 -11 12 -12 -42
-26 -76 -31 -76 -12 0 -10 16 13 98 25 89 20 107 -6 22 -10 -34 -21 -63 -25
-65 -8 -5 -15 93 -11 165 7 126 5 213 -4 216 -5 2 -32 -24 -59 -56 -28 -32
-55 -56 -60 -53 -6 4 -8 3 -4 -2 6 -6 -45 -81 -72 -105 -49 -44 -141 -168
-164 -223 -15 -37 -34 -67 -41 -67 -6 0 -20 -9 -30 -20 -25 -28 -40 -25 -70
13 l-25 34 74 73 74 74 -5 140 c-3 78 -10 146 -15 153 -10 12 27 167 45 191 5
6 18 12 28 12 10 0 46 25 81 54 73 64 63 57 82 50z m-352 -160 c14 -53 16 -89
12 -154 -6 -89 -37 -226 -60 -271 -18 -36 -9 -41 33 -17 l35 21 -26 -52 c-50
-98 -148 -178 -171 -141 -4 6 -21 16 -38 23 -26 11 -42 11 -87 0 -84 -19 -135
-5 -204 56 l-28 26 4 -32 c4 -31 4 -32 -14 -16 -39 35 -7 122 74 199 58 56
161 89 269 85 43 -1 80 2 83 7 3 6 9 32 12 59 4 35 3 44 -5 33 -13 -19 -13
-11 -1 68 9 54 8 70 -7 103 -21 49 -41 50 -97 4 -24 -19 -45 -33 -48 -30 -2 3
-5 -1 -5 -7 0 -11 -38 -73 -89 -146 -9 -13 -22 -21 -29 -18 -8 3 -16 -5 -19
-19 -10 -38 -34 -39 -49 -2 -11 26 -11 42 -2 84 13 58 39 103 58 103 6 0 23 3
36 7 16 4 22 3 17 -5 -3 -6 -2 -13 3 -16 5 -4 34 20 64 51 44 46 68 62 119 79
60 20 65 20 103 4 37 -16 40 -21 57 -86z m1229 67 c27 -33 43 -142 35 -242 -6
-75 -23 -150 -63 -272 -6 -18 -4 -18 25 -3 17 9 34 16 37 16 15 0 -54 -109
-93 -147 -50 -49 -62 -51 -103 -22 -33 23 -64 26 -128 11 -73 -17 -139 3 -192
61 -24 26 -32 21 -25 -15 l6 -33 -20 30 c-26 39 -25 46 10 109 28 48 100 127
100 109 0 -5 4 -3 8 3 16 25 154 58 233 55 l76 -2 6 29 c3 16 9 42 13 57 5 21
4 26 -6 20 -9 -6 -10 9 -5 67 8 86 -9 138 -46 138 -29 0 -139 -113 -175 -179
-16 -30 -35 -57 -43 -59 -9 -3 -11 0 -5 9 7 12 5 12 -9 1 -9 -8 -19 -22 -22
-33 -9 -27 -33 -24 -47 7 -14 30 1 118 27 158 19 29 73 45 85 25 9 -13 41 -22
37 -10 -5 15 61 83 74 76 7 -5 10 -4 6 2 -9 14 9 28 63 47 56 20 119 14 141
-13z"/>
<path d="M2941 1553 c-80 -92 -166 -202 -160 -207 2 -1 24 -18 49 -38 56 -44
111 -55 136 -27 10 11 24 17 33 14 8 -3 12 -3 9 0 -4 4 0 24 7 45 7 21 17 94
20 162 6 102 5 126 -6 130 -9 3 -42 -27 -88 -79z"/>
<path d="M906 1360 c-39 -12 -66 -39 -66 -66 0 -26 24 -54 46 -54 8 0 13 -4
10 -8 -6 -9 22 -13 93 -12 36 1 70 9 105 27 28 14 52 26 53 27 1 0 4 12 8 26
5 23 1 28 -40 48 -48 23 -150 29 -209 12z"/>
<path d="M2153 1357 c-81 -30 -83 -82 -4 -121 43 -22 55 -24 108 -16 141 20
198 89 107 130 -53 23 -158 26 -211 7z"/>
</g>
</svg>
